<svg xmlns="http://www.w3.org/2000/svg" xmlns:xlink="http://www.w3.org/1999/xlink" width="40" zoomAndPan="magnify" viewBox="0 0 30 30.000001" height="40" preserveAspectRatio="xMidYMid meet" version="1.0"><defs><clipPath id="22a78da3bd"><path d="M 2.734375 0 L 25.960938 0 L 25.960938 29.03125 L 2.734375 29.03125 Z M 2.734375 0 " clip-rule="nonzero"/></clipPath><clipPath id="2c1aba986a"><path d="M 4.039062 0 L 27.265625 0 L 27.265625 29.03125 L 4.039062 29.03125 Z M 4.039062 0 " clip-rule="nonzero"/></clipPath></defs><g clip-path="url(#22a78da3bd)"><path fill="#fbb040" d="M 25.945312 16.832031 L 25.824219 16.769531 L 22.894531 15.277344 L 25.941406 13.726562 L 25.9375 5.910156 L 14.335938 0.0078125 L 2.734375 5.910156 L 2.734375 26.882812 L 7.199219 29.023438 L 11.394531 26.925781 L 11.394531 18.15625 L 17.277344 21.152344 L 17.296875 26.882812 L 21.761719 29.023438 L 25.957031 26.925781 Z M 24.644531 12.933594 L 22.390625 14.082031 L 22.382812 8.363281 L 24.640625 7.320312 Z M 6.546875 27.273438 L 4.023438 26.066406 L 4.023438 7.320312 L 6.546875 8.484375 Z M 7.167969 7.347656 L 4.851562 6.28125 L 14.328125 1.460938 L 23.804688 6.28125 L 21.488281 7.347656 L 14.328125 3.710938 Z M 18.582031 26.066406 L 18.59375 20.367188 L 11.394531 16.703125 L 11.394531 14.4375 L 21.101562 19.378906 L 21.105469 27.273438 Z M 12.226562 13.410156 L 19.347656 9.796875 L 14.335938 7.246094 L 10.105469 9.402344 L 10.105469 26.125 L 7.835938 27.253906 L 7.835938 8.464844 L 14.332031 5.164062 L 21.089844 8.597656 L 21.089844 11.082031 L 16.507812 13.488281 L 23.839844 17.210938 L 21.773438 18.265625 Z M 11.394531 12.386719 L 11.394531 10.195312 L 14.335938 8.699219 L 16.492188 9.796875 Z M 22.402344 27.253906 L 22.394531 19.402344 L 24.652344 18.253906 L 24.660156 26.125 Z M 22.402344 27.253906 " fill-opacity="1" fill-rule="nonzero"/></g><g clip-path="url(#2c1aba986a)"><path fill="#000000" d="M 27.253906 16.832031 L 27.132812 16.769531 L 24.199219 15.277344 L 27.25 13.726562 L 27.246094 5.910156 L 15.640625 0.0078125 L 4.039062 5.910156 L 4.039062 26.882812 L 8.507812 29.023438 L 12.699219 26.925781 L 12.699219 18.15625 L 18.585938 21.152344 L 18.601562 26.882812 L 23.066406 29.023438 L 27.265625 26.925781 Z M 25.953125 12.933594 L 23.695312 14.082031 L 23.691406 8.363281 L 25.949219 7.320312 Z M 7.851562 27.273438 L 5.328125 26.066406 L 5.328125 7.320312 L 7.851562 8.484375 Z M 8.472656 7.347656 L 6.15625 6.28125 L 15.636719 1.460938 L 25.113281 6.28125 L 22.796875 7.347656 L 15.636719 3.710938 Z M 19.890625 26.066406 L 19.898438 20.367188 L 12.699219 16.703125 L 12.699219 14.4375 L 22.410156 19.378906 L 22.414062 27.273438 Z M 13.535156 13.410156 L 20.652344 9.796875 L 15.644531 7.246094 L 11.410156 9.402344 L 11.410156 26.125 L 9.140625 27.253906 L 9.140625 8.464844 L 15.636719 5.164062 L 22.394531 8.597656 L 22.398438 11.082031 L 17.816406 13.488281 L 25.148438 17.210938 L 23.078125 18.265625 Z M 12.699219 12.386719 L 12.699219 10.195312 L 15.640625 8.699219 L 17.796875 9.796875 Z M 23.707031 27.253906 L 23.699219 19.402344 L 25.957031 18.253906 L 25.964844 26.125 Z M 23.707031 27.253906 " fill-opacity="1" fill-rule="nonzero"/></g></svg>